<?xml version="1.0" encoding="UTF-8"?>
<svg width="512" height="512" version="1.1" viewBox="0 0 512 512" xmlns="http://www.w3.org/2000/svg">
 <g transform="matrix(0,1,1,0,0,0)">
  <path d="m337.9 348.2c-7.6 2.7-29.2 5.6-74.6-18.7-49.2-26.4-56.5-48.5-57.6-55.1 0.7-8 0.2-16.1-1.1-23.9l0.3 0.5s-4-21.5 52.3-56.5c50.4-31.3 73.3-25.1 77.6-23.4 2.8 1.8 5.6 3.6 8.6 5.2 5.5445 2.95 11.374 5.3289 17.4 7.1 6.9 6.6 19.7 25.4 21 74.7 1.4 49.7-13.2 68.8-21.2 75.6-8.2 3.7-15.9 8.7-22.7 14.7m105.4-12.3c-3.2-1.7-4.1621-3.267-7.3621-4.567l-0.03789-0.03301s-20.9-9.2-22.7-76.3 19.9-78.5 19.9-78.5l0.0882 0.0213c16.4-8.4 27.312-21.621 36.612-39.121 24.2-45.6 6.9-102.2-38.7-126.5-45.6-24.4-102.2-7.1-126.4 38.6-10 18.7-13.922 37.726-10.822 57.126l0.02177-0.02558s5.5 24.3-51.6 59.8c-57 35.4-82.8 17.8-82.8 17.8-83.991-34.222-121.02 21.724-129.8 38.2-24.2 45.6-6.9 102.2 38.7 126.5 34 18.1 74.1 13 102.3-9.6l0.0123 3e-3s20.188-15.903 79.988 16.297c47.2 25.3 54.2 50.2 55.2 59.5-1.3 34.6 16.8 68.6 49.5 86 45.6 24.2 102.2 6.9 126.4-38.7 24.2-45.6 6.9-102.3-38.7-126.5" clip-rule="evenodd" fill="#0078d4" fill-rule="evenodd"/>
 </g>
</svg>
