<?xml version="1.0" encoding="UTF-8"?>
<svg width="48" height="48" version="1.1" xmlns="http://www.w3.org/2000/svg">
 <g>
  <title>Layer 1</title>
  <path d="m11.286 8h3.7143v3.6667h-3.7143v9.1667c0 2.025-1.6629 3.6667-3.7143 3.6667 2.0513 0 3.7143 1.6416 3.7143 3.6667v9.1667h3.7143v3.6667h-3.7143c-1.9871-0.495-3.7143-1.65-3.7143-3.6667v-7.3333c0-2.025-1.6629-3.6667-3.7143-3.6667 0 0-1.5029 0.062-1.9406-0.37573-0.86424-0.86424-0.80162-2.0718 0.062622-2.9361 0.43773-0.43773 1.878-0.35486 1.878-0.35486 2.0514 0 3.7143-1.6416 3.7143-3.6667v-7.3333c0-2.025 1.6629-3.6667 3.7143-3.6667zm25.429 0c2.0513 0 3.7143 1.6416 3.7143 3.6667v7.3333c0 2.025 1.6629 3.6667 3.7143 3.6667 0 0 1.5227-0.03921 1.9605 0.39852 0.86424 0.86424 0.83472 1.9759-0.02952 2.8401-0.43773 0.43773-1.9309 0.42804-1.9309 0.42804-2.0514 0-3.7143 1.6416-3.7143 3.6667v7.3333c0 2.025-1.6629 3.6667-3.7143 3.6667h-3.7143v-3.6667h3.7143v-9.1667c0-2.025 1.6629-3.6667 3.7143-3.6667-2.0513 0-3.7143-1.6416-3.7143-3.6667v-9.1667h-3.7143v-3.6667zm-12.797 22c0.82843 0 1.5 0.67157 1.5 1.5s-0.67157 1.5-1.5 1.5-1.5-0.67157-1.5-1.5 0.67157-1.5 1.5-1.5zm-6 0c0.82843 0 1.5 0.67157 1.5 1.5s-0.67157 1.5-1.5 1.5-1.5-0.67157-1.5-1.5 0.67157-1.5 1.5-1.5zm11.753 0c0.82843 0 1.5 0.67157 1.5 1.5s-0.67157 1.5-1.5 1.5-1.5-0.67157-1.5-1.5 0.67157-1.5 1.5-1.5z" fill="#0078d4" style="paint-order:stroke fill markers"/>
 </g>
</svg>
