<?xml version="1.0" encoding="UTF-8" standalone="no"?>
<svg
   width="512"
   height="512"
   viewBox="0 0 512 512"
   version="1.1"
   id="svg1"
   xmlns="http://www.w3.org/2000/svg"
   xmlns:svg="http://www.w3.org/2000/svg">
  <defs
     id="defs1" />
  <g
     transform="matrix(0,1,1,0,0,0)"
     id="g1">
    <path
       fill="#c5c5c5"
       fill-rule="evenodd"
       d="M 337.9 348.2 c -7.6 2.7 -29.2 5.6 -74.6 -18.7 c -49.2 -26.4 -56.5 -48.5 -57.6 -55.1 c 0.7 -8 0.2 -16.1 -1.1 -23.9 l 0.3 0.5 s -4 -21.5 52.3 -56.5 c 50.4 -31.3 73.3 -25.1 77.6 -23.4 c 2.8 1.8 5.6 3.6 8.6 5.2 a 92.7 92.7 0 0 0 17.4 7.1 c 6.9 6.6 19.7 25.4 21 74.7 c 1.4 49.7 -13.2 68.8 -21.2 75.6 c -8.2 3.7 -15.9 8.7 -22.7 14.7 m 105.4 -12.3 c -3.2 -1.7 -6.5 -3.1 -9.7 -4.4 l 2.3 -0.2 s -20.9 -9.2 -22.7 -76.3 c -1.8 -67.1 19.9 -78.5 19.9 -78.5 l -3.1 0.1 c 16.4 -8.4 30.5 -21.7 39.8 -39.2 c 24.2 -45.6 6.9 -102.2 -38.7 -126.5 C 385.5 -13.3 328.9 4 304.7 49.7 c -10 18.7 -12.8 39.3 -9.7 58.7 l -1.1 -1.6 s 5.5 24.3 -51.6 59.8 c -57 35.4 -82.8 17.8 -82.8 17.8 l 1.6 2.4 c -1.6 -1 -3.2 -2 -4.9 -2.9 c -45.6 -24.2 -102.2 -6.9 -126.5 38.7 c -24.2 45.6 -6.9 102.2 38.7 126.5 c 34 18.1 74.1 13 102.3 -9.6 l -0.6 1.2 s 20.8 -17.1 80.6 15.1 c 47.2 25.3 54.2 50.2 55.2 59.5 c -1.3 34.6 16.8 68.6 49.5 86 c 45.6 24.2 102.2 6.9 126.4 -38.7 c 24.2 -45.6 6.9 -102.3 -38.7 -126.5 M 331.7 40.7 c -27.2 29.8 -27.8 73.6 -1.6 98.3 c -13 -12.5 -12.7 -38.5 0.4 -63.3 c 1.7 -2.2 6.6 -7.5 13.7 -5.1 c 0.7 0.2 1.2 0.3 1.5 0.3 c 1.6 0.3 3.3 0.5 5 0.5 c 10.8 -0.5 19.2 -9.6 18.7 -20.5 c -0.2 -4.9 -2.2 -9.2 -5.4 -12.5 c 25.1 -16.5 54 -18.4 65.8 -7.6 l 0.4 0 c -27 -24.6 -71.1 -20.2 -98.6 9.8 M 58.2 216.7 c -27.2 29.8 -27.8 73.6 -1.6 98.3 c -13 -12.5 -12.7 -38.5 0.4 -63.3 c 1.7 -2.2 6.6 -7.5 13.7 -5.1 c 0.7 0.2 1.2 0.3 1.4 0.3 c 1.6 0.3 3.3 0.5 5 0.5 c 10.8 -0.5 19.2 -9.6 18.7 -20.5 c -0.2 -4.9 -2.2 -9.2 -5.3 -12.5 c 25.1 -16.4 54 -18.4 65.8 -7.6 l 0.4 0 c -27 -24.7 -71.2 -20.3 -98.6 9.8 m 289.6 149 c -27.2 29.8 -27.8 73.6 -1.6 98.3 c -13 -12.5 -12.7 -38.5 0.4 -63.3 c 1.7 -2.2 6.6 -7.5 13.7 -5.1 c 0.7 0.2 1.2 0.3 1.4 0.3 c 1.6 0.3 3.3 0.5 5 0.5 c 10.8 -0.5 19.2 -9.7 18.7 -20.5 c -0.2 -4.9 -2.2 -9.2 -5.4 -12.5 c 25.1 -16.4 54 -18.4 65.8 -7.6 l 0.4 0.1 c -27 -24.7 -71.1 -20.3 -98.6 9.8"
       clip-rule="evenodd"
       id="path1"
       style="fill:#0078d4;fill-opacity:1" />
    <path
       style="fill:#f9f9f9;fill-opacity:1;stroke:#ffffff;stroke-width:0.137289;stroke-linecap:round;stroke-linejoin:round"
       d="m 200.48403,147.92363 c -7.76134,-11.85651 -11.06368,-29.61163 -8.37511,-45.02903 2.77667,-15.922603 10.06219,-29.706123 21.94627,-41.520302 16.45017,-16.353397 35.91952,-24.25041 57.68897,-23.399368 9.29569,0.3634 15.05071,1.57954 22.78206,4.814265 4.49623,1.881176 12.8703,6.786808 12.39562,7.261496 -0.1306,0.130596 -1.89703,-0.322822 -3.9254,-1.007596 -11.68491,-3.944802 -26.129,-2.716486 -42.29462,3.596709 -8.1851,3.196545 -10.41918,4.618218 -12.80157,8.146382 -2.09339,3.100188 -2.11144,3.187681 -1.62105,7.85834 0.93155,8.872376 0.69509,12.037381 -1.1867,15.883617 -4.64578,9.495641 -15.85049,13.593137 -24.98918,9.138403 -1.90504,-0.92863 -3.97155,-2.049918 -4.59225,-2.49175 -1.47976,-1.053343 -2.48885,0.263678 -6.71452,8.763441 -6.43114,12.935993 -9.20133,24.678713 -8.66278,36.721053 0.17815,3.98327 0.66057,8.15732 1.07205,9.27567 0.98162,2.66785 0.53261,3.90494 -0.72179,1.98867 z"
       id="path2"
       transform="matrix(0,1,1,0,0,0)" />
    <path
       style="fill:#f9f9f9;fill-opacity:1;stroke:#ffffff;stroke-width:0.137289;stroke-linecap:round;stroke-linejoin:round"
       d="m 23.665358,419.95538 c -5.615699,-9.77732 -8.217519,-19.80879 -8.223053,-31.70446 -0.0057,-12.15485 2.173687,-21.74401 7.343771,-32.31278 19.665189,-40.19989 69.476078,-56.84848 104.621254,-34.96817 4.45168,2.77148 5.87825,4.4004 2.22561,2.54128 -5.84133,-2.97311 -20.17844,-3.921 -29.665752,-1.96134 -11.923341,2.46283 -23.904611,7.44741 -27.037859,11.24858 -2.706439,3.28338 -3.697134,7.0812 -2.788503,10.6897 1.778221,7.06195 0.388631,14.14737 -3.681397,18.77116 -6.520067,7.40719 -17.752125,8.96474 -25.286953,3.50654 -1.857646,-1.34568 -2.749803,-1.65961 -3.335335,-1.17367 -0.439642,0.36488 -2.403744,3.75132 -4.364672,7.52544 -3.931658,7.56711 -7.371917,17.3657 -8.649316,24.63511 -1.16008,6.60176 -1.030858,17.03312 0.272264,21.97831 0.584072,2.21648 0.936106,4.1558 0.782297,4.30961 -0.153809,0.15382 -1.14937,-1.23458 -2.212356,-3.08531 z"
       id="path3"
       transform="matrix(0,1,1,0,0,0)" />
    <path
       style="fill:#f9f9f9;fill-opacity:1;stroke:#ffffff;stroke-width:0.137289;stroke-linecap:round;stroke-linejoin:round"
       d="m 348.47569,435.62231 c -2.59804,-4.55137 -4.9874,-10.40052 -6.6168,-16.19796 -1.80739,-6.43075 -1.63006,-25.49218 0.30348,-32.62079 3.8925,-14.3509 10.55878,-25.86937 20.87853,-36.0754 23.00734,-22.75379 55.51885,-29.72712 82.19761,-17.63039 3.85819,1.74938 11.28341,6.30404 10.89601,6.68366 -0.10104,0.099 -2.28395,-0.52528 -4.85091,-1.38734 -12.44189,-4.17833 -31.64351,-1.64748 -47.27461,6.23099 -4.56047,2.29859 -5.61635,3.14256 -7.24032,5.78726 -2.05522,3.347 -2.16097,4.48459 -1.27063,13.66876 0.6552,6.75857 -0.62903,10.41139 -5.30123,15.07866 -4.16816,4.16376 -7.79952,5.63389 -13.8662,5.61362 -4.25443,-0.0142 -7.73377,-1.16767 -11.40267,-3.78016 l -1.81943,-1.29555 -1.53309,2.42858 c -4.81394,7.62577 -9.42771,19.21042 -11.46856,28.79626 -1.46444,6.87841 -1.48065,18.84295 -0.0328,24.15822 0.60015,2.20315 0.98917,4.10772 0.86449,4.23241 -0.12469,0.12468 -1.233,-1.53619 -2.46292,-3.69083 z"
       id="path4"
       transform="matrix(0,1,1,0,0,0)" />
  </g>
</svg>
