<svg xmlns="http://www.w3.org/2000/svg" width="512" height="512" viewBox="0 0 512 512"><g transform="matrix(0,1,1,0,0,0)"><path fill="#c5c5c5" fill-rule="evenodd" d="M 337.9 348.2 c -7.6 2.7 -29.2 5.6 -74.6 -18.7 c -49.2 -26.4 -56.5 -48.5 -57.6 -55.1 c 0.7 -8 0.2 -16.1 -1.1 -23.9 l 0.3 0.5 s -4 -21.5 52.3 -56.5 c 50.4 -31.3 73.3 -25.1 77.6 -23.4 c 2.8 1.8 5.6 3.6 8.6 5.2 a 92.7 92.7 0 0 0 17.4 7.1 c 6.9 6.6 19.7 25.4 21 74.7 c 1.4 49.7 -13.2 68.8 -21.2 75.6 c -8.2 3.7 -15.9 8.7 -22.7 14.7 m 105.4 -12.3 c -3.2 -1.7 -6.5 -3.1 -9.7 -4.4 l 2.3 -0.2 s -20.9 -9.2 -22.7 -76.3 c -1.8 -67.1 19.9 -78.5 19.9 -78.5 l -3.1 0.1 c 16.4 -8.4 30.5 -21.7 39.8 -39.2 c 24.2 -45.6 6.9 -102.2 -38.7 -126.5 C 385.5 -13.3 328.9 4 304.7 49.7 c -10 18.7 -12.8 39.3 -9.7 58.7 l -1.1 -1.6 s 5.5 24.3 -51.6 59.8 c -57 35.4 -82.8 17.8 -82.8 17.8 l 1.6 2.4 c -1.6 -1 -3.2 -2 -4.9 -2.9 c -45.6 -24.2 -102.2 -6.9 -126.5 38.7 c -24.2 45.6 -6.9 102.2 38.7 126.5 c 34 18.1 74.1 13 102.3 -9.6 l -0.6 1.2 s 20.8 -17.1 80.6 15.1 c 47.2 25.3 54.2 50.2 55.2 59.5 c -1.3 34.6 16.8 68.6 49.5 86 c 45.6 24.2 102.2 6.9 126.4 -38.7 c 24.2 -45.6 6.9 -102.3 -38.7 -126.5 M 331.7 40.7 c -27.2 29.8 -27.8 73.6 -1.6 98.3 c -13 -12.5 -12.7 -38.5 0.4 -63.3 c 1.7 -2.2 6.6 -7.5 13.7 -5.1 c 0.7 0.2 1.2 0.3 1.5 0.3 c 1.6 0.3 3.3 0.5 5 0.5 c 10.8 -0.5 19.2 -9.6 18.7 -20.5 c -0.2 -4.9 -2.2 -9.2 -5.4 -12.5 c 25.1 -16.5 54 -18.4 65.8 -7.6 l 0.4 0 c -27 -24.6 -71.1 -20.2 -98.6 9.8 M 58.2 216.7 c -27.2 29.8 -27.8 73.6 -1.6 98.3 c -13 -12.5 -12.7 -38.5 0.4 -63.3 c 1.7 -2.2 6.6 -7.5 13.7 -5.1 c 0.7 0.2 1.2 0.3 1.4 0.3 c 1.6 0.3 3.3 0.5 5 0.5 c 10.8 -0.5 19.2 -9.6 18.7 -20.5 c -0.2 -4.9 -2.2 -9.2 -5.3 -12.5 c 25.1 -16.4 54 -18.4 65.8 -7.6 l 0.4 0 c -27 -24.7 -71.2 -20.3 -98.6 9.8 m 289.6 149 c -27.2 29.8 -27.8 73.6 -1.6 98.3 c -13 -12.5 -12.7 -38.5 0.4 -63.3 c 1.7 -2.2 6.6 -7.5 13.7 -5.1 c 0.7 0.2 1.2 0.3 1.4 0.3 c 1.6 0.3 3.3 0.5 5 0.5 c 10.8 -0.5 19.2 -9.7 18.7 -20.5 c -0.2 -4.9 -2.2 -9.2 -5.4 -12.5 c 25.1 -16.4 54 -18.4 65.8 -7.6 l 0.4 0.1 c -27 -24.7 -71.1 -20.3 -98.6 9.8" clip-rule="evenodd"/></g></svg>