<svg width="256" height="186.049" xmlns="http://www.w3.org/2000/svg" preserveAspectRatio="xMidYMid">
 <title>JSON-LD</title>

 <g>
  <title>Layer 1</title>
  <g transform="rotate(120 110.475 97.0245)" stroke="null" id="svg_1">
   <path stroke="null" id="svg_2" fill="#000000" d="m51.8057,191.81275z"/>
   <g stroke="null" transform="matrix(-1.1543 0 0 -1.1543 241.952 155.889)" id="svg_3">
    <path stroke="null" id="svg_4" fill="#0078D4" d="m166.02047,84.12184c-0.88905,-0.47109 -1.79488,-0.87228 -2.70629,-1.22874l0.65141,-0.05312c0,0 -5.80259,-2.5693 -6.31002,-21.21978c-0.50184,-18.65327 5.5314,-21.83484 5.5314,-21.83484l-0.86668,0.03774c4.55847,-2.33865 8.47952,-6.03324 11.06699,-10.90903c6.74196,-12.68154 1.91789,-28.43422 -10.76645,-35.17758c-12.68993,-6.73498 -28.43842,-1.92209 -35.17619,10.77204c-2.77059,5.20709 -3.55759,10.92721 -2.68252,16.3314l-0.29635,-0.45571c0,0 1.52788,6.76852 -14.33943,16.61797c-15.86451,9.85503 -22.56593,5.61946 -22.56593,5.61946c-0.45431,-0.28097 -0.88905,-0.56753 -1.36293,-0.81496c-12.68993,-6.74336 -28.44261,-1.92488 -35.18318,10.76505c-6.73777,12.68854 -1.91789,28.43423 10.76785,35.18038c9.45804,5.01978 20.61031,3.62051 28.46777,-2.67553l-0.17054,0.3299c0,0 5.77603,-4.75139 22.42196,4.18524c13.14004,7.05089 15.09148,13.962 15.3417,16.55926c-0.34388,9.63556 4.67869,19.08661 13.7649,23.91348c12.68574,6.74476 28.43842,1.92209 35.17618,-10.76505c6.74336,-12.68574 1.92628,-28.43981 -10.76365,-35.17758zm-29.33306,3.4192c-2.10241,0.74368 -8.10909,1.56702 -20.75429,-5.21408c-13.695,-7.35283 -15.72751,-13.49511 -16.02526,-15.33891c0.1943,-2.2366 0.06989,-4.46901 -0.31173,-6.6469l0.08387,0.12581c0,0 -1.1155,-5.97453 14.5547,-15.70516c14.02491,-8.70598 20.40063,-6.97401 21.58742,-6.5197c0.76324,0.51862 1.55444,1.00228 2.38478,1.44401c1.57821,0.83873 3.20533,1.49573 4.85343,1.98219c1.92907,1.83681 5.47968,7.05229 5.84872,20.76407c0.37743,13.81522 -3.68201,19.14253 -5.89485,21.02687c-2.27854,1.03164 -4.4117,2.40855 -6.32679,4.0818l0,0z"/>
    <path stroke="null" id="svg_5" fill="#FFFFFF" d="m134.97221,2.01611c-7.5695,8.27963 -7.72886,20.45934 -0.43613,27.35087c-3.60513,-3.47093 -3.52685,-10.69516 0.11602,-17.60906c0.46829,-0.61926 1.82563,-2.08284 3.80922,-1.41745c0.19989,0.0685 0.33129,0.08667 0.40818,0.07409c0.44871,0.09645 0.90862,0.15377 1.38389,0.1328c3.01243,-0.13699 5.34269,-2.68532 5.2071,-5.69915c-0.06151,-1.35175 -0.62206,-2.54833 -1.48874,-3.46673c6.99218,-4.58085 15.016,-5.10505 18.3038,-2.10241l0.12581,0.00839c-7.51079,-6.85799 -19.78835,-5.63205 -27.42915,2.72865z"/>
    <path stroke="null" id="svg_6" fill="#FFFFFF" d="m58.88016,50.98376c-7.57091,8.28102 -7.72887,20.45793 -0.43754,27.35086c-3.60373,-3.47232 -3.52684,-10.69655 0.11603,-17.61045c0.46968,-0.62066 1.82842,-2.08284 3.81201,-1.41745c0.1971,0.06849 0.3299,0.08527 0.40818,0.07548c0.44872,0.09646 0.91002,0.15377 1.3839,0.1328c3.01382,-0.13839 5.34268,-2.68672 5.20709,-5.69775c-0.0629,-1.35174 -0.62206,-2.54972 -1.48594,-3.46673c6.98799,-4.57945 15.0132,-5.10785 18.30101,-2.10381l0.12441,0.01119c-7.5108,-6.86218 -19.79115,-5.63764 -27.42915,2.72586z"/>
    <path stroke="null" id="svg_7" fill="#FFFFFF" d="m139.43004,92.43921c-7.5709,8.28382 -7.72886,20.46352 -0.43753,27.35506c-3.60652,-3.47093 -3.52685,-10.69796 0.11463,-17.60906c0.46968,-0.62206 1.82702,-2.08284 3.81201,-1.41745c0.19989,0.0657 0.3285,0.08527 0.40818,0.07409c0.44732,0.09645 0.91002,0.15376 1.3839,0.13419c3.01102,-0.13978 5.33989,-2.68951 5.20429,-5.70333c-0.0615,-1.35036 -0.62205,-2.54694 -1.48594,-3.46534c6.98939,-4.57805 15.0118,-5.10505 18.30241,-2.10241l0.12301,0.00978c-7.5066,-6.85938 -19.78835,-5.63344 -27.42496,2.72447l0,0z"/>
   </g>
  </g>
 </g>
</svg>