<svg width="16" height="16" xmlns="http://www.w3.org/2000/svg" preserveAspectRatio="xMidYMid">
 <title>JSON10</title>
 <g>
  <title>Layer 1</title>
  <g transform="rotate(-28.5692 7.12325 9.36875)" stroke="null" id="svg10">
   <path stroke="null" id="svg_4" fill="#0C479C" d="m12.11156,11.49533c-0.08509,-0.04509 -0.17179,-0.08349 -0.25902,-0.1176l0.06235,-0.00508c0,0 -0.55536,-0.24591 -0.60393,-2.03094c-0.04803,-1.7853 0.52941,-2.08981 0.52941,-2.08981l-0.08295,0.00361c0.43629,-0.22383 0.81157,-0.57744 1.05922,-1.0441c0.64527,-1.21375 0.18356,-2.72143 -1.03045,-3.36684c-1.21455,-0.6446 -2.72183,-0.18396 -3.36671,1.03099c-0.26517,0.49837 -0.3405,1.04584 -0.25674,1.56307l-0.02836,-0.04362c0,0 0.14623,0.64781 -1.37242,1.5905c-1.51839,0.94322 -2.15978,0.53784 -2.15978,0.53784c-0.04348,-0.02689 -0.08509,-0.05432 -0.13045,-0.078c-1.21455,-0.64541 -2.72224,-0.18423 -3.36737,1.03032c-0.64487,1.21442 -0.18356,2.72143 1.03059,3.36711c0.90523,0.48044 1.97261,0.34652 2.72464,-0.25607l-0.01632,0.03157c0,0 0.55282,-0.45475 2.146,0.40057c1.25763,0.67484 1.4444,1.3363 1.46835,1.58488c-0.03291,0.92222 0.4478,1.82678 1.31744,2.28875c1.21415,0.64554 2.72183,0.18396 3.3667,-1.03032c0.64541,-1.21415 0.18436,-2.72197 -1.03019,-3.36684zm-2.80746,0.32725c-0.20122,0.07118 -0.77612,0.14998 -1.98639,-0.49904c-1.31075,-0.70374 -1.50528,-1.29161 -1.53377,-1.46808c0.0186,-0.21406 0.00669,-0.42773 -0.02984,-0.63617l0.00803,0.01204c0,0 -0.10676,-0.57182 1.39303,-1.50314c1.34232,-0.83325 1.95254,-0.66748 2.06613,-0.624c0.07305,0.04964 0.14878,0.09593 0.22825,0.13821c0.15105,0.08027 0.30678,0.14316 0.46452,0.18971c0.18463,0.1758 0.52446,0.67497 0.55978,1.98732c0.03612,1.32225 -0.3524,1.83213 -0.56419,2.01248c-0.21808,0.09874 -0.42224,0.23052 -0.60554,0.39067l0,0z"/>
   <path stroke="null" id="svg_5" fill="#FFFFFF" d="m9.13993,3.63701c-0.72448,0.79244 -0.73973,1.95816 -0.04174,2.61775c-0.34505,-0.3322 -0.33755,-1.02363 0.0111,-1.68536c0.04482,-0.05927 0.17473,-0.19935 0.36458,-0.13566c0.01913,0.00656 0.03171,0.0083 0.03907,0.00709c0.04295,0.00923 0.08696,0.01472 0.13245,0.01271c0.28832,-0.01311 0.51135,-0.25701 0.49837,-0.54546c-0.00589,-0.12938 -0.05954,-0.2439 -0.14249,-0.3318c0.66922,-0.43843 1.43718,-0.4886 1.75185,-0.20122l0.01204,0.0008c-0.71886,-0.65638 -1.89394,-0.53904 -2.62524,0.26116z"/>
   <path stroke="null" id="svg_6" fill="#FFFFFF" d="m1.85718,8.32369c-0.72461,0.79257 -0.73973,1.95802 -0.04188,2.61774c-0.34491,-0.33233 -0.33755,-1.02376 0.01111,-1.68549c0.04495,-0.0594 0.175,-0.19935 0.36485,-0.13566c0.01886,0.00656 0.03157,0.00816 0.03907,0.00722c0.04295,0.00923 0.0871,0.01472 0.13245,0.01271c0.28845,-0.01325 0.51135,-0.25715 0.49837,-0.54533c-0.00602,-0.12937 -0.05954,-0.24403 -0.14222,-0.3318c0.66882,-0.4383 1.43691,-0.48887 1.75159,-0.20136l0.01191,0.00107c-0.71886,-0.65678 -1.89421,-0.53958 -2.62524,0.26089z"/>
   <path stroke="null" id="svg_7" fill="#FFFFFF" d="m9.56659,12.29139c-0.72461,0.79284 -0.73973,1.95856 -0.04188,2.61815c-0.34518,-0.3322 -0.33755,-1.0239 0.01097,-1.68536c0.04495,-0.05954 0.17486,-0.19935 0.36485,-0.13566c0.01913,0.00629 0.03144,0.00816 0.03907,0.00709c0.04281,0.00923 0.0871,0.01472 0.13245,0.01284c0.28818,-0.01338 0.51108,-0.25741 0.4981,-0.54586c-0.00589,-0.12924 -0.05954,-0.24377 -0.14222,-0.33167c0.66895,-0.43816 1.43678,-0.4886 1.75172,-0.20122l0.01177,0.00094c-0.71846,-0.65651 -1.89394,-0.53918 -2.62484,0.26076l0,0z"/>
  </g>
 </g>
</svg>