<svg width="256" height="256" xmlns="http://www.w3.org/2000/svg" preserveAspectRatio="xMidYMid">
 <title>JSON-LD</title>

 <g>
  <title>Layer 1</title>
  <g transform="rotate(-28.1171 111.784 142.74)" stroke="null" id="svg_3">
   <path stroke="null" id="svg_4" fill="#0078D4" d="m192.99774,177.36216c-1.38534,-0.73407 -2.79684,-1.35921 -4.21702,-1.91466l1.01505,-0.08277c0,0 -9.04177,-4.00356 -9.83247,-33.06531c-0.78198,-29.0661 8.6192,-34.02372 8.6192,-34.02372l-1.35049,0.05881c7.10315,-3.64416 13.21305,-9.40118 17.24492,-16.99878c10.50553,-19.76076 2.98851,-44.30707 -16.77661,-54.81478c-19.77384,-10.49465 -44.31362,-2.99506 -54.81262,16.78532c-4.31722,8.11385 -5.54355,17.02711 -4.17998,25.44809l-0.46178,-0.7101c0,0 2.38079,10.54692 -22.34414,25.89463c-24.72057,15.35641 -35.16292,8.75641 -35.16292,8.75641c-0.70792,-0.43782 -1.38534,-0.88434 -2.12376,-1.2699c-19.77384,-10.50771 -44.32015,-2.99941 -54.82351,16.77443c-10.499,19.77167 -2.98851,44.30709 16.77879,54.81915c14.73781,7.82198 32.11562,5.64159 44.35935,-4.16909l-0.26574,0.51406c0,0 9.00039,-7.40376 34.93859,6.52157c20.47521,10.98691 23.51601,21.75602 23.90591,25.80315c-0.53584,15.01442 7.29048,29.74134 21.44889,37.26272c19.76731,10.50989 44.31362,2.99506 54.8126,-16.77443c10.50771,-19.76731 3.00159,-44.31578 -16.77225,-54.81478zm-45.70767,5.3279c-3.27604,1.15882 -12.63583,2.44178 -32.33997,-8.12474c-21.33997,-11.45741 -24.50709,-21.02849 -24.97105,-23.90156c0.30276,-3.48514 0.1089,-6.96375 -0.48575,-10.3574l0.13069,0.19604c0,0 -1.73821,-9.3097 22.67958,-24.47226c21.85404,-13.56592 31.78889,-10.86712 33.63818,-10.1592c1.1893,0.80813 2.42218,1.56178 3.71604,2.2501c2.45922,1.30693 4.99464,2.33069 7.56276,3.08871c3.00594,2.86217 8.53861,10.98909 9.11365,32.35521c0.58812,21.5273 -5.73742,29.82848 -9.18554,32.76471c-3.55049,1.60753 -6.87445,3.75308 -9.8586,6.36039l0,0z"/>
   <path stroke="null" id="svg_5" fill="#FFFFFF" d="m144.61738,49.4225c-11.79503,12.90157 -12.04335,31.88037 -0.67959,42.61896c-5.61762,-5.40851 -5.49565,-16.66553 0.18079,-27.43898c0.7297,-0.96495 2.84475,-3.24555 5.93564,-2.20871c0.31147,0.10674 0.51623,0.13505 0.63604,0.11545c0.69919,0.15029 1.41584,0.23961 2.15642,0.20693c4.69406,-0.21346 8.32514,-4.18435 8.11386,-8.88059c-0.09585,-2.10634 -0.96931,-3.97089 -2.3198,-5.40196c10.89543,-7.13802 23.39839,-7.95485 28.52154,-3.27604l0.19604,0.01307c-11.70354,-10.68633 -30.83481,-8.77603 -42.74094,4.25187z"/>
   <path stroke="null" id="svg_6" fill="#FFFFFF" d="m26.04842,125.72539c-11.79722,12.90374 -12.04336,31.87817 -0.68179,42.61895c-5.61544,-5.41068 -5.49563,-16.66769 0.1808,-27.44114c0.73187,-0.96713 2.8491,-3.24555 5.93999,-2.20871c0.30713,0.10672 0.51406,0.13287 0.63604,0.11762c0.69921,0.15031 1.41802,0.23961 2.15644,0.20693c4.69623,-0.21564 8.32513,-4.18653 8.11385,-8.87841c-0.09801,-2.10632 -0.96931,-3.97305 -2.31544,-5.40196c10.8889,-7.13584 23.39403,-7.95921 28.51719,-3.27822l0.19386,0.01744c-11.70356,-10.69286 -30.83918,-8.78474 -42.74094,4.24752z"/>
   <path stroke="null" id="svg_7" fill="#FFFFFF" d="m151.56371,190.32254c-11.79721,12.9081 -12.04335,31.88688 -0.68177,42.62549c-5.61979,-5.40851 -5.49565,-16.66989 0.17862,-27.43898c0.73187,-0.96931 2.84692,-3.24555 5.93999,-2.20871c0.31147,0.10238 0.51188,0.13287 0.63604,0.11545c0.69703,0.15029 1.41802,0.23959 2.15644,0.2091c4.69186,-0.21781 8.32078,-4.19088 8.10948,-8.8871c-0.09583,-2.10417 -0.9693,-3.96872 -2.31544,-5.3998c10.89108,-7.13366 23.39185,-7.95485 28.51938,-3.27604l0.19168,0.01524c-11.69701,-10.6885 -30.83481,-8.7782 -42.73441,4.24535l0,0z"/>
  </g>
 </g>
</svg>