<svg width="256" height="256" xmlns="http://www.w3.org/2000/svg" preserveAspectRatio="xMidYMid">
    <g transform="rotate(-28.5692 110.223 151.425)" stroke="null" id="svg9">
        <path stroke="null" id="svg_4" fill="#ffffff" d="m189.90624,185.39497c-1.35924,-0.72024 -2.74414,-1.33361 -4.13757,-1.87859l0.99592,-0.08121c0,0 -8.87143,-3.92813 -9.64722,-32.44236c-0.76725,-28.51849 8.45681,-33.38271 8.45681,-33.38271l-1.32504,0.0577c6.96932,-3.5755 12.96411,-9.22406 16.92003,-16.67853c10.3076,-19.38847 2.93221,-43.47232 -16.46054,-53.78207c-19.4013,-10.29693 -43.47875,-2.93863 -53.77994,16.46909c-4.23588,7.96098 -5.4391,16.70632 -4.10123,24.96864l-0.45308,-0.69672c0,0 2.33594,10.34821 -21.92317,25.40677c-24.25483,15.06709 -34.50045,8.59144 -34.50045,8.59144c-0.69458,-0.42957 -1.35924,-0.86768 -2.08375,-1.24597c-19.4013,-10.30974 -43.48515,-2.9429 -53.79063,16.4584c-10.3012,19.39917 -2.93221,43.47234 16.46268,53.78635c14.46015,7.67461 31.51056,5.5353 43.52362,-4.09055l-0.26073,0.50438c0,0 8.83082,-7.26427 34.28034,6.3987c20.08946,10.77992 23.07296,21.34613 23.45552,25.31701c-0.52575,14.73155 7.15312,29.18101 21.04479,36.56068c19.39489,10.31188 43.47875,2.93863 53.77993,-16.4584c10.30974,-19.39489 2.94504,-43.48087 -16.45626,-53.78207zm-44.84654,5.22752c-3.21432,1.13699 -12.39777,2.39578 -31.73068,-7.97167c-20.93792,-11.24155 -24.04537,-20.63232 -24.50059,-23.45125c0.29706,-3.41948 0.10685,-6.83255 -0.4766,-10.16227l0.12823,0.19235c0,0 -1.70546,-9.1343 22.25229,-24.0112c21.44231,-13.31034 31.18998,-10.66238 33.00443,-9.9678c1.1669,0.7929 2.37654,1.53236 3.64603,2.20771c2.41288,1.28231 4.90054,2.28678 7.42028,3.03052c2.9493,2.80825 8.37774,10.78206 8.94195,31.74564c0.57704,21.12172 -5.62933,29.26651 -9.01248,32.14742c-3.4836,1.57725 -6.74493,3.68237 -9.67286,6.24056l0,0z"/>
        <path stroke="null" id="svg_5" fill="#FFFFFF" d="m142.43738,59.8657c-11.57281,12.65851 -11.81645,31.27974 -0.66679,41.81602c-5.51179,-5.30661 -5.39211,-16.35155 0.17738,-26.92202c0.71596,-0.94677 2.79116,-3.1844 5.82382,-2.1671c0.30561,0.10473 0.5065,0.13251 0.62406,0.11327c0.68602,0.14746 1.38916,0.23509 2.11579,0.20303c4.60562,-0.20944 8.1683,-4.10551 7.961,-8.71328c-0.09404,-2.06665 -0.95105,-3.89607 -2.2761,-5.30019c10.69016,-7.00354 22.95756,-7.80498 27.98419,-3.21432l0.19235,0.01283c-11.48305,-10.485 -30.25388,-8.61069 -41.9357,4.17176z"/>
        <path stroke="null" id="svg_6" fill="#FFFFFF" d="m26.10226,134.73104c-11.57496,12.66063 -11.81646,31.27759 -0.66894,41.816c-5.50965,-5.30874 -5.39209,-16.35367 0.1774,-26.92415c0.71808,-0.94891 2.79542,-3.1844 5.82808,-2.1671c0.30134,0.10471 0.50438,0.13037 0.62406,0.1154c0.68604,0.14748 1.39131,0.23509 2.11581,0.20303c4.60775,-0.21158 8.16828,-4.10765 7.96098,-8.71114c-0.09617,-2.06664 -0.95105,-3.8982 -2.27181,-5.30019c10.68375,-7.0014 22.95328,-7.80926 27.97993,-3.21646l0.19021,0.01711c-11.48306,-10.4914 -30.25816,-8.61924 -41.9357,4.16749z"/>
        <path stroke="null" id="svg_7" fill="#FFFFFF" d="m149.25284,198.11118c-11.57495,12.66491 -11.81645,31.28613 -0.66893,41.82243c-5.51391,-5.30661 -5.39211,-16.35583 0.17525,-26.92202c0.71808,-0.95105 2.79328,-3.1844 5.82808,-2.1671c0.30561,0.10045 0.50223,0.13037 0.62406,0.11327c0.6839,0.14746 1.39131,0.23508 2.11581,0.20516c4.60347,-0.21371 8.16402,-4.11192 7.9567,-8.71967c-0.09403,-2.06453 -0.95104,-3.89395 -2.27181,-5.29807c10.68589,-6.99926 22.95114,-7.80498 27.98207,-3.21432l0.18807,0.01495c-11.47664,-10.48712 -30.25388,-8.61282 -41.92929,4.16537l0,0z"/>
    </g>
</svg>