<svg width="15" height="15" xmlns="http://www.w3.org/2000/svg" fill="none">

 <g>
  <title>Layer 1</title>
  <path id="svg_1" clip-rule="evenodd" d="m6.015,1.287a1.5,1.5 0 0 1 2.97,0l3.545,2.069a1.5,1.5 0 1 1 1.47,2.56l0,3.17a1.5,1.5 0 1 1 -1.47,2.559l-3.545,2.068a1.5,1.5 0 0 1 -2.97,0l-3.545,-2.068a1.5,1.5 0 1 1 -1.47,-2.56l0,-3.17a1.5,1.5 0 1 1 1.47,-2.56l3.545,-2.068zm0.225,1.027l-3.266,1.905a1.5,1.5 0 0 1 -0.974,1.695l0,2.936l4.3,-6.45a1.5,1.5 0 0 1 -0.06,-0.085l0,-0.001zm0.891,0.64l-4.43,6.647c0.09,0.12 0.163,0.254 0.214,0.399l9.17,0a1.51,1.51 0 0 1 0.214,-0.4l-4.429,-6.645a1.503,1.503 0 0 1 -0.738,0l-0.001,-0.001zm1.57,-0.555l4.299,6.451l0,-2.935a1.5,1.5 0 0 1 -0.974,-1.696l-3.266,-1.905a1.5,1.5 0 0 1 -0.06,0.085l0.001,0zm2.949,8.601l-8.301,0l2.89,1.686a1.499,1.499 0 0 1 2.521,0l2.89,-1.686zm-4.15,-10a0.5,0.5 0 1 0 0,1a0.5,0.5 0 0 0 0,-1zm-6,3a0.5,0.5 0 1 0 0,1a0.5,0.5 0 0 0 0,-1zm12,0a0.5,0.5 0 1 0 0,1a0.5,0.5 0 0 0 0,-1zm-12,6a0.5,0.5 0 1 0 0,1a0.5,0.5 0 0 0 0,-1zm12,0a0.5,0.5 0 1 0 0,1a0.5,0.5 0 0 0 0,-1zm-6,3a0.5,0.5 0 1 0 0,1a0.5,0.5 0 0 0 0,-1z" fill-rule="evenodd" fill="currentColor"/>
 </g>
</svg>