<svg width="48" height="48" xmlns="http://www.w3.org/2000/svg">

 <g>
  <title>Layer 1</title>
  <path id="svg_1" d="m11.28571,8l3.71429,0l0,3.66667l-3.71429,0l0,9.16666c0,2.02505 -1.66294,3.66667 -3.71428,3.66667c2.05134,0 3.71428,1.64162 3.71428,3.66667l0,9.16666l3.71429,0l0,3.66667l-3.71429,0c-1.98714,-0.495 -3.71428,-1.65 -3.71428,-3.66667l0,-7.33333c0,-2.02504 -1.66294,-3.66667 -3.71429,-3.66667l-1.85714,0l0,-3.66666l1.85714,0c2.05135,0 3.71429,-1.64163 3.71429,-3.66667l0,-7.33333c0,-2.02505 1.66294,-3.66667 3.71428,-3.66667zm25.42858,0c2.05134,0 3.71428,1.64162 3.71428,3.66667l0,7.33333c0,2.02504 1.66294,3.66667 3.71429,3.66667l1.85714,0l0,3.66666l-1.85714,0c-2.05135,0 -3.71429,1.64163 -3.71429,3.66667l0,7.33333c0,2.02505 -1.66294,3.66667 -3.71428,3.66667l-3.71429,0l0,-3.66667l3.71429,0l0,-9.16666c0,-2.02505 1.66294,-3.66667 3.71428,-3.66667c-2.05134,0 -3.71428,-1.64162 -3.71428,-3.66667l0,-9.16666l-3.71429,0l0,-3.66667l3.71429,0zm-14.21429,22c0.82843,0 1.5,0.67157 1.5,1.5c0,0.82843 -0.67157,1.5 -1.5,1.5c-0.82843,0 -1.5,-0.67157 -1.5,-1.5c0,-0.82843 0.67157,-1.5 1.5,-1.5zm-6,0c0.82843,0 1.5,0.67157 1.5,1.5c0,0.82843 -0.67157,1.5 -1.5,1.5c-0.82843,0 -1.5,-0.67157 -1.5,-1.5c0,-0.82843 0.67157,-1.5 1.5,-1.5zm15,0c0.82843,0 1.5,0.67157 1.5,1.5c0,0.82843 -0.67157,1.5 -1.5,1.5c-0.82843,0 -1.5,-0.67157 -1.5,-1.5c0,-0.82843 0.67157,-1.5 1.5,-1.5z" fill="#4f80ff"/>
 </g>
</svg>