<svg width="24" height="24" xmlns="http://www.w3.org/2000/svg">

 <g>
  <title>Layer 1</title>
  <path fill="#ADACAE" id="svg_1" d="m5,3l2,0l0,2l-2,0l0,5a2,2 0 0 1 -2,2a2,2 0 0 1 2,2l0,5l2,0l0,2l-2,0c-1.07,-0.27 -2,-0.9 -2,-2l0,-4a2,2 0 0 0 -2,-2l-1,0l0,-2l1,0a2,2 0 0 0 2,-2l0,-4a2,2 0 0 1 2,-2m14,0a2,2 0 0 1 2,2l0,4a2,2 0 0 0 2,2l1,0l0,2l-1,0a2,2 0 0 0 -2,2l0,4a2,2 0 0 1 -2,2l-2,0l0,-2l2,0l0,-5a2,2 0 0 1 2,-2a2,2 0 0 1 -2,-2l0,-5l-2,0l0,-2l2,0m-7,12a1,1 0 0 1 1,1a1,1 0 0 1 -1,1a1,1 0 0 1 -1,-1a1,1 0 0 1 1,-1m-4,0a1,1 0 0 1 1,1a1,1 0 0 1 -1,1a1,1 0 0 1 -1,-1a1,1 0 0 1 1,-1m8,0a1,1 0 0 1 1,1a1,1 0 0 1 -1,1a1,1 0 0 1 -1,-1a1,1 0 0 1 1,-1z"/>
 </g>
</svg>